<mxfile host="65bd71144e">
    <diagram id="a6L_MpejaBsTp51QHeGa" name="Current">
        <mxGraphModel dx="712" dy="1663" grid="1" gridSize="10" guides="1" tooltips="1" connect="1" arrows="1" fold="1" page="1" pageScale="1" pageWidth="850" pageHeight="1100" math="0" shadow="0">
            <root>
                <mxCell id="0"/>
                <mxCell id="1" parent="0"/>
                <mxCell id="3" value="" style="shape=mxgraph.cisco.switches.atm_switch;sketch=0;html=1;pointerEvents=1;dashed=0;fillColor=#036897;strokeColor=#ffffff;strokeWidth=2;verticalLabelPosition=bottom;verticalAlign=top;align=center;outlineConnect=0;" parent="1" vertex="1">
                    <mxGeometry x="400" y="190" width="70" height="46" as="geometry"/>
                </mxCell>
                <mxCell id="18" value="" style="edgeStyle=elbowEdgeStyle;orthogonalLoop=1;jettySize=auto;html=1;endArrow=none;endFill=0;rounded=0;" parent="1" source="3" target="27" edge="1">
                    <mxGeometry width="80" relative="1" as="geometry">
                        <mxPoint x="650" y="287" as="sourcePoint"/>
                        <mxPoint x="590" y="429.61832061068696" as="targetPoint"/>
                    </mxGeometry>
                </mxCell>
                <mxCell id="19" value="" style="edgeStyle=elbowEdgeStyle;orthogonalLoop=1;jettySize=auto;html=1;endArrow=none;endFill=0;rounded=0;" parent="1" source="3" target="26" edge="1">
                    <mxGeometry width="80" relative="1" as="geometry">
                        <mxPoint x="760" y="297" as="sourcePoint"/>
                        <mxPoint x="590" y="367.27735368956746" as="targetPoint"/>
                    </mxGeometry>
                </mxCell>
                <mxCell id="23" value="" style="edgeStyle=elbowEdgeStyle;orthogonalLoop=1;jettySize=auto;html=1;endArrow=none;endFill=0;rounded=0;" parent="1" source="3" target="22" edge="1">
                    <mxGeometry width="80" relative="1" as="geometry">
                        <mxPoint x="450" y="268.9567430025446" as="sourcePoint"/>
                        <mxPoint x="590" y="224.78371501272272" as="targetPoint"/>
                    </mxGeometry>
                </mxCell>
                <mxCell id="22" value="" style="shape=mxgraph.cisco.controllers_and_modules.3174_(desktop)_cluster_controller;sketch=0;html=1;pointerEvents=1;dashed=0;fillColor=#036897;strokeColor=#ffffff;strokeWidth=2;verticalLabelPosition=bottom;verticalAlign=top;align=center;outlineConnect=0;" parent="1" vertex="1">
                    <mxGeometry x="600" y="197" width="77" height="32" as="geometry"/>
                </mxCell>
                <mxCell id="25" value="" style="edgeStyle=elbowEdgeStyle;orthogonalLoop=1;jettySize=auto;html=1;endArrow=none;endFill=0;rounded=0;" parent="1" source="3" target="24" edge="1">
                    <mxGeometry width="80" relative="1" as="geometry">
                        <mxPoint x="450" y="283.20610687022906" as="sourcePoint"/>
                        <mxPoint x="590" y="296.0305343511451" as="targetPoint"/>
                    </mxGeometry>
                </mxCell>
                <mxCell id="24" value="" style="shape=mxgraph.cisco.controllers_and_modules.3174_(desktop)_cluster_controller;sketch=0;html=1;pointerEvents=1;dashed=0;fillColor=#036897;strokeColor=#ffffff;strokeWidth=2;verticalLabelPosition=bottom;verticalAlign=top;align=center;outlineConnect=0;" parent="1" vertex="1">
                    <mxGeometry x="600" y="247" width="77" height="32" as="geometry"/>
                </mxCell>
                <mxCell id="26" value="" style="shape=mxgraph.cisco.controllers_and_modules.3174_(desktop)_cluster_controller;sketch=0;html=1;pointerEvents=1;dashed=0;fillColor=#036897;strokeColor=#ffffff;strokeWidth=2;verticalLabelPosition=bottom;verticalAlign=top;align=center;outlineConnect=0;" parent="1" vertex="1">
                    <mxGeometry x="600" y="297" width="77" height="32" as="geometry"/>
                </mxCell>
                <mxCell id="27" value="" style="shape=mxgraph.cisco.controllers_and_modules.3174_(desktop)_cluster_controller;sketch=0;html=1;pointerEvents=1;dashed=0;fillColor=#036897;strokeColor=#ffffff;strokeWidth=2;verticalLabelPosition=bottom;verticalAlign=top;align=center;outlineConnect=0;" parent="1" vertex="1">
                    <mxGeometry x="600" y="347" width="77" height="32" as="geometry"/>
                </mxCell>
                <mxCell id="28" value="" style="shape=mxgraph.cisco.security.firewall;sketch=0;html=1;pointerEvents=1;dashed=0;fillColor=#036897;strokeColor=#ffffff;strokeWidth=2;verticalLabelPosition=bottom;verticalAlign=top;align=center;outlineConnect=0;" parent="1" vertex="1">
                    <mxGeometry x="300" y="158" width="49" height="110" as="geometry"/>
                </mxCell>
                <mxCell id="29" value="" style="shape=mxgraph.cisco.storage.relational_database;sketch=0;html=1;pointerEvents=1;dashed=0;fillColor=#036897;strokeColor=#ffffff;strokeWidth=2;verticalLabelPosition=bottom;verticalAlign=top;align=center;outlineConnect=0;" parent="1" vertex="1">
                    <mxGeometry x="630" y="105" width="66" height="53" as="geometry"/>
                </mxCell>
                <mxCell id="30" value="" style="shape=mxgraph.cisco.storage.cloud;sketch=0;html=1;pointerEvents=1;dashed=0;fillColor=#036897;strokeColor=#ffffff;strokeWidth=2;verticalLabelPosition=bottom;verticalAlign=top;align=center;outlineConnect=0;" parent="1" vertex="1">
                    <mxGeometry x="100" y="70" width="150" height="78" as="geometry"/>
                </mxCell>
                <mxCell id="31" value="" style="shape=mxgraph.cisco.storage.relational_database;sketch=0;html=1;pointerEvents=1;dashed=0;fillColor=#036897;strokeColor=#ffffff;strokeWidth=2;verticalLabelPosition=bottom;verticalAlign=top;align=center;outlineConnect=0;" parent="1" vertex="1">
                    <mxGeometry x="100" width="66" height="53" as="geometry"/>
                </mxCell>
                <mxCell id="32" value="" style="edgeStyle=orthogonalEdgeStyle;orthogonalLoop=1;jettySize=auto;html=1;rounded=0;endArrow=none;endFill=0;" parent="1" source="28" target="30" edge="1">
                    <mxGeometry width="80" relative="1" as="geometry">
                        <mxPoint x="400" y="50" as="sourcePoint"/>
                        <mxPoint x="140" y="210" as="targetPoint"/>
                    </mxGeometry>
                </mxCell>
                <mxCell id="33" value="" style="edgeStyle=none;orthogonalLoop=1;jettySize=auto;html=1;rounded=0;endArrow=none;endFill=0;" parent="1" source="31" target="30" edge="1">
                    <mxGeometry width="80" relative="1" as="geometry">
                        <mxPoint x="300" y="140" as="sourcePoint"/>
                        <mxPoint x="380" y="140" as="targetPoint"/>
                        <Array as="points"/>
                    </mxGeometry>
                </mxCell>
                <mxCell id="34" value="bissendorf.co" style="text;strokeColor=none;align=center;fillColor=none;html=1;verticalAlign=middle;whiteSpace=wrap;rounded=0;fontColor=#FFFFFF;fontStyle=1" parent="1" vertex="1">
                    <mxGeometry x="125" y="94" width="100" height="30" as="geometry"/>
                </mxCell>
                <mxCell id="35" value="" style="edgeStyle=none;orthogonalLoop=1;jettySize=auto;html=1;rounded=0;fontColor=#FFFFFF;endArrow=none;endFill=0;" parent="1" source="28" target="3" edge="1">
                    <mxGeometry width="80" relative="1" as="geometry">
                        <mxPoint x="360" y="300" as="sourcePoint"/>
                        <mxPoint x="440" y="300" as="targetPoint"/>
                        <Array as="points"/>
                    </mxGeometry>
                </mxCell>
                <mxCell id="36" value="" style="edgeStyle=none;orthogonalLoop=1;jettySize=auto;html=1;rounded=0;fontColor=#FFFFFF;endArrow=none;endFill=0;" parent="1" source="22" target="29" edge="1">
                    <mxGeometry width="80" relative="1" as="geometry">
                        <mxPoint x="480" y="360" as="sourcePoint"/>
                        <mxPoint x="560" y="360" as="targetPoint"/>
                        <Array as="points"/>
                    </mxGeometry>
                </mxCell>
                <mxCell id="37" value="" style="shape=mxgraph.cisco.controllers_and_modules.3174_(desktop)_cluster_controller;sketch=0;html=1;pointerEvents=1;dashed=0;fillColor=#036897;strokeColor=#ffffff;strokeWidth=2;verticalLabelPosition=bottom;verticalAlign=top;align=center;outlineConnect=0;" parent="1" vertex="1">
                    <mxGeometry x="600" y="400" width="77" height="32" as="geometry"/>
                </mxCell>
                <mxCell id="38" value="" style="edgeStyle=elbowEdgeStyle;orthogonalLoop=1;jettySize=auto;html=1;endArrow=none;endFill=0;rounded=0;" parent="1" source="3" target="37" edge="1">
                    <mxGeometry width="80" relative="1" as="geometry">
                        <mxPoint x="480" y="223" as="sourcePoint"/>
                        <mxPoint x="610" y="373" as="targetPoint"/>
                    </mxGeometry>
                </mxCell>
                <mxCell id="39" value="" style="shape=mxgraph.cisco.storage.relational_database;sketch=0;html=1;pointerEvents=1;dashed=0;fillColor=#036897;strokeColor=#ffffff;strokeWidth=2;verticalLabelPosition=bottom;verticalAlign=top;align=center;outlineConnect=0;" vertex="1" parent="1">
                    <mxGeometry x="720" y="144" width="66" height="53" as="geometry"/>
                </mxCell>
                <mxCell id="40" value="" style="edgeStyle=none;orthogonalLoop=1;jettySize=auto;html=1;endArrow=none;endFill=0;" edge="1" parent="1" source="22" target="39">
                    <mxGeometry width="80" relative="1" as="geometry">
                        <mxPoint x="580" y="140" as="sourcePoint"/>
                        <mxPoint x="660" y="140" as="targetPoint"/>
                        <Array as="points"/>
                    </mxGeometry>
                </mxCell>
                <mxCell id="41" value="ssd" style="text;strokeColor=none;align=center;fillColor=none;html=1;verticalAlign=middle;whiteSpace=wrap;rounded=0;fontColor=#FFFFFF;fontStyle=1" vertex="1" parent="1">
                    <mxGeometry x="626" y="127" width="70" height="30" as="geometry"/>
                </mxCell>
                <mxCell id="42" value="hdd" style="text;strokeColor=none;align=center;fillColor=none;html=1;verticalAlign=middle;whiteSpace=wrap;rounded=0;fontColor=#FFFFFF;fontStyle=1" vertex="1" parent="1">
                    <mxGeometry x="716" y="167" width="70" height="30" as="geometry"/>
                </mxCell>
            </root>
        </mxGraphModel>
    </diagram>
</mxfile>